<?xml version="1.0" encoding="utf-8"?>
<!-- Generator: Adobe Illustrator 15.1.0, SVG Export Plug-In . SVG Version: 6.00 Build 0)  -->
<!DOCTYPE svg PUBLIC "-//W3C//DTD SVG 1.1//EN" "http://www.w3.org/Graphics/SVG/1.1/DTD/svg11.dtd">
<svg version="1.1" xmlns="http://www.w3.org/2000/svg" xmlns:xlink="http://www.w3.org/1999/xlink" x="0px" y="0px" width="48px"
	 height="48px" viewBox="0 0 48 48" enable-background="new 0 0 48 48" xml:space="preserve">
<path d="M36.472,3.75c-6.474,0-8.683,3.001-12.472,7.342C20.211,6.75,17.997,3.75,11.525,3.75C4.579,3.75,0,8.329,0,15.197
	c0,4.027,1.817,8.527,6,12.631L24,45.75l18.001-17.922C46.184,23.725,48,19.224,48,15.197C48,8.329,43.421,3.75,36.472,3.75z
	 M40.601,26.4L24,42.928L7.41,26.411C3.917,22.983,2,19.004,2,15.197C2,9.458,5.738,5.75,11.525,5.75
	c5.192,0,7.019,2.105,10.333,5.928L24,14.133l2.149-2.465c3.311-3.816,5.134-5.919,10.323-5.919C42.26,5.75,46,9.458,46,15.197
	C46,19.005,44.082,22.984,40.601,26.4z"/>
</svg>
