<?xml version="1.0" encoding="utf-8"?>
<!-- Generator: Adobe Illustrator 15.1.0, SVG Export Plug-In . SVG Version: 6.00 Build 0)  -->
<!DOCTYPE svg PUBLIC "-//W3C//DTD SVG 1.1//EN" "http://www.w3.org/Graphics/SVG/1.1/DTD/svg11.dtd">
<svg version="1.1" id="Layer_1" xmlns="http://www.w3.org/2000/svg" xmlns:xlink="http://www.w3.org/1999/xlink" x="0px" y="0px"
	 width="48px" height="48px" viewBox="0 0 48 48" enable-background="new 0 0 48 48" xml:space="preserve">
<path d="M10.75,24.312l-6.764,18.68l8.555-2.402l5.06,7.41l5.981-16.639C18.227,31.268,13.519,28.491,10.75,24.312z M17.044,43.638
	l-3.661-5.361l-6.192,1.738l4.25-11.737c2.564,2.521,5.839,4.209,9.39,4.826L17.044,43.638z M36.973,24.302
	c-2.785,4.209-7.533,7.003-12.932,7.063L30.018,48l5.01-7.41l8.557,2.402L36.973,24.302z M34.179,38.274l-3.611,5.341l-3.771-10.493
	c3.579-0.602,6.881-2.292,9.466-4.831l4.15,11.733L34.179,38.274z M23.858,0.932c-8.117,0-14.721,6.604-14.721,14.721
	c0,8.118,6.604,14.722,14.721,14.722s14.72-6.604,14.72-14.722C38.578,7.536,31.975,0.932,23.858,0.932z M23.858,28.375
	c-7.014,0-12.721-5.707-12.721-12.722c0-7.014,5.707-12.721,12.721-12.721s12.72,5.707,12.72,12.721
	C36.578,22.668,30.872,28.375,23.858,28.375z"/>
</svg>
