<?xml version="1.0" encoding="utf-8"?>
<!-- Generator: Adobe Illustrator 15.1.0, SVG Export Plug-In . SVG Version: 6.00 Build 0)  -->
<!DOCTYPE svg PUBLIC "-//W3C//DTD SVG 1.1//EN" "http://www.w3.org/Graphics/SVG/1.1/DTD/svg11.dtd">
<svg version="1.1" xmlns="http://www.w3.org/2000/svg" xmlns:xlink="http://www.w3.org/1999/xlink" x="0px" y="0px" width="48px"
	 height="48px" viewBox="0 0 48 48" enable-background="new 0 0 48 48" xml:space="preserve">
<path d="M34.601,4.487C27.891,4.487,24.265,0,24.265,0s-3.639,4.487-10.347,4.487C7.739,4.487,3.57,0.761,3.57,0.761v24.37
	c0.188,16.051,20.67,22.684,20.67,22.684s20.67-6.633,20.67-22.684V0.761C44.91,0.761,40.778,4.487,34.601,4.487z M42.91,25.131
	c0,12.944-15.37,19.34-18.665,20.562C20.97,44.461,5.722,38.03,5.57,25.107V4.431c2.039,1.039,4.913,2.056,8.348,2.056
	c4.98,0,8.482-2.168,10.345-3.714c1.86,1.546,5.356,3.714,10.337,3.714c3.423,0,6.281-1.011,8.31-2.046V25.131z"/>
</svg>
