<?xml version="1.0" encoding="utf-8"?>
<!-- Generator: Adobe Illustrator 15.1.0, SVG Export Plug-In . SVG Version: 6.00 Build 0)  -->
<!DOCTYPE svg PUBLIC "-//W3C//DTD SVG 1.1//EN" "http://www.w3.org/Graphics/SVG/1.1/DTD/svg11.dtd">
<svg version="1.1" xmlns="http://www.w3.org/2000/svg" xmlns:xlink="http://www.w3.org/1999/xlink" x="0px" y="0px" width="48px"
	 height="48px" viewBox="0 0 48 48" enable-background="new 0 0 48 48" xml:space="preserve">
<path d="M36.506,4.411L14.1,28.012l3.337,2.551l2.55,3.338L43.59,11.495L47.949,0.05L36.506,4.411z M41.883,10.357l-21.658,20.56
	l-1.361-1.781l-1.781-1.361L37.644,6.118l6.849-2.61L41.883,10.357z M16.299,31.701l-8.531-6.52l-2.301,2.303l5.502,5.502
	l-6.47,6.471c-1.152-0.053-2.321,0.349-3.202,1.229c-1.661,1.66-1.663,4.355,0,6.018s4.358,1.662,6.02,0
	c0.88-0.88,1.279-2.049,1.227-3.201l6.47-6.471l5.502,5.502l2.302-2.301L16.299,31.701z M15.014,34.203l-8.508,8.509l0.04,0.881
	c0.03,0.649-0.199,1.252-0.643,1.695C5.476,45.715,4.91,45.95,4.307,45.95c-0.603,0-1.17-0.235-1.596-0.661
	c-0.426-0.426-0.66-0.992-0.66-1.595s0.235-1.169,0.66-1.594c0.418-0.418,0.982-0.648,1.588-0.648l0.99,0.043l8.508-8.509
	l-2.883-2.884l3.958,3.025l3.022,3.956L15.014,34.203z"/>
</svg>
